<svg width="15" height="15" viewBox="0 0 15 15" fill="none" xmlns="http://www.w3.org/2000/svg">
<path d="M4.0127 14.5V5.15625H1.10645V14.5H4.0127ZM2.54395 3.90625C3.48145 3.90625 4.23145 3.125 4.23145 2.1875C4.23145 1.28125 3.48145 0.53125 2.54395 0.53125C1.6377 0.53125 0.887695 1.28125 0.887695 2.1875C0.887695 3.125 1.6377 3.90625 2.54395 3.90625ZM14.8564 14.5H14.8877V9.375C14.8877 6.875 14.3252 4.9375 11.3877 4.9375C9.98145 4.9375 9.04395 5.71875 8.6377 6.4375H8.60645V5.15625H5.8252V14.5H8.73145V9.875C8.73145 8.65625 8.9502 7.5 10.4502 7.5C11.9502 7.5 11.9814 8.875 11.9814 9.96875V14.5H14.8564Z" fill="#141414"/>
</svg>
