<svg width="17" height="13" viewBox="0 0 17 13" fill="none" xmlns="http://www.w3.org/2000/svg">
<path d="M15.2314 3.25C15.8564 2.78125 16.4189 2.21875 16.8564 1.5625C16.2939 1.8125 15.6377 2 14.9814 2.0625C15.6689 1.65625 16.1689 1.03125 16.4189 0.25C15.7939 0.625 15.0752 0.90625 14.3564 1.0625C13.7314 0.40625 12.8877 0.03125 11.9502 0.03125C10.1377 0.03125 8.66895 1.5 8.66895 3.3125C8.66895 3.5625 8.7002 3.8125 8.7627 4.0625C6.04395 3.90625 3.60645 2.59375 1.98145 0.625C1.7002 1.09375 1.54395 1.65625 1.54395 2.28125C1.54395 3.40625 2.10645 4.40625 3.0127 5C2.48145 4.96875 1.9502 4.84375 1.5127 4.59375V4.625C1.5127 6.21875 2.6377 7.53125 4.1377 7.84375C3.8877 7.90625 3.5752 7.96875 3.29395 7.96875C3.0752 7.96875 2.8877 7.9375 2.66895 7.90625C3.0752 9.21875 4.29395 10.1562 5.73145 10.1875C4.60645 11.0625 3.2002 11.5938 1.66895 11.5938C1.3877 11.5938 1.1377 11.5625 0.887695 11.5312C2.3252 12.4688 4.04395 13 5.91895 13C11.9502 13 15.2314 8.03125 15.2314 3.6875C15.2314 3.53125 15.2314 3.40625 15.2314 3.25Z" fill="#141414"/>
</svg>
